PathFileType	4	(X/Y/Z)	SUBJ82_3_walk_RCNL2025.trc
DataRate	CameraRate	NumFrames	NumMarkers	Units	OrigDataRate	OrigDataStartFrame	OrigNumFrames
100	100	13	25	mm	100	169	225
Frame#	Time	R_Shoulder			L_Shoulder			C7			J_Notch			R_Elbow			L_Elbow			R_Wrist			L_Wrist			R_Asis			L_Asis			Sacral			Thoracic			Sternum			R_Thigh_Lateral			R_Knee_Lateral			R_Shank_Lateral			R_Ankle_Lateral			R_Heel			R_Toe			L_Thigh_Lateral			L_Knee_Lateral			L_Shank_Lateral			L_Ankle_Lateral			L_Heel			L_Toe		
		X1	Y1	Z1	X2	Y2	Z2	X3	Y3	Z3	X4	Y4	Z4	X5	Y5	Z5	X6	Y6	Z6	X7	Y7	Z7	X8	Y8	Z8	X9	Y9	Z9	X10	Y10	Z10	X11	Y11	Z11	X12	Y12	Z12	X13	Y13	Z13	X14	Y14	Z14	X15	Y15	Z15	X16	Y16	Z16	X17	Y17	Z17	X18	Y18	Z18	X19	Y19	Z19	X20	Y20	Z20	X21	Y21	Z21	X22	Y22	Z22	X23	Y23	Z23	X24	Y24	Z24	X25	Y25	Z25
169	1.68000000	462.581635	1432.729370	514.984680	495.916260	1446.162964	107.217308	420.338470	1531.278687	314.209381	545.338135	1416.663696	316.835968	415.247009	1094.136353	591.707886	386.472443	1114.719116	31.339220	533.206512	862.207916	563.528931	437.410950	855.904358	55.330963	516.110046	1000.248962	455.788239	539.537109	1010.970703	187.593735	347.044647	1028.916382	292.522949	333.103760	1298.627686	295.110168	570.154724	1237.772949	315.886047	437.947845	569.685486	479.894287	429.589783	484.099548	428.305756	389.678467	260.086700	483.473145	372.413300	78.742172	383.218689	325.397247	49.550587	341.766479	505.785919	50.338314	360.969116	567.540466	579.961182	116.194115	575.093628	511.181030	161.316711	491.751953	301.893005	132.733261	418.185944	131.029617	205.968079	381.055847	121.781677	264.912537	541.972046	63.417351	209.841858
170	1.69000000	477.243866	1432.184937	514.805969	509.251038	1444.891602	106.848053	434.306396	1530.359131	313.908173	559.305664	1415.827026	316.491089	432.371002	1093.706421	593.305969	395.517944	1114.665894	32.422165	554.611664	864.065277	564.275177	442.351730	855.029877	55.998896	529.630005	998.847839	455.846008	553.424072	1010.238342	187.743286	360.890869	1028.007935	292.159485	347.141541	1297.733276	295.292236	584.167542	1236.764038	315.917419	444.181885	569.293884	479.457275	434.260284	483.751953	427.753723	391.941284	260.129639	483.090485	372.705231	79.036041	383.026154	325.500427	49.791843	341.519714	505.823547	50.127499	360.703369	586.923584	580.703735	116.476906	595.013550	511.111938	161.939819	524.554626	295.809906	133.069473	462.956665	120.954773	206.054855	426.774658	109.110252	265.155243	590.960815	62.428387	208.715759
171	1.70000000	491.904968	1431.245972	514.563110	522.624573	1443.303101	106.425011	448.314575	1529.116943	313.529572	573.304260	1414.637085	316.102509	449.448456	1092.927856	594.771851	404.735626	1114.324097	33.499249	575.819580	865.606384	564.854156	447.508560	854.004303	56.638014	543.169312	997.199951	455.776978	567.340576	1009.116089	187.767120	374.770660	1026.733398	291.763641	361.173767	1296.542236	295.362793	598.206909	1235.417847	315.876404	450.668732	568.806458	479.048309	439.229462	483.326050	427.241516	394.384399	260.140015	482.738312	372.996582	79.335236	382.863251	325.595367	50.062969	341.290741	505.843079	49.916134	360.436646	604.884155	580.773193	116.985054	613.819458	510.503571	162.627121	556.988770	290.106018	133.256866	508.421173	111.770676	205.795151	473.354675	97.417191	265.062714	640.091248	62.673695	207.392883
172	1.71000000	506.559174	1429.945068	514.249573	536.039124	1441.414551	105.938461	462.363007	1527.567383	313.058838	587.337952	1413.111816	315.664459	466.489716	1091.825439	596.095337	414.137482	1113.702759	34.546658	596.814362	866.834686	565.266449	452.835571	852.854858	57.248457	556.727783	995.342957	455.591156	581.312073	1007.632141	187.680740	388.696564	1025.114746	291.317810	375.199799	1295.072754	295.322418	612.269409	1233.759399	315.761444	457.428131	568.226074	478.675659	444.514435	482.827423	426.772888	396.980469	260.131317	482.415314	373.306702	79.639313	382.705597	325.692017	50.383068	341.076935	505.855804	49.722454	360.190857	621.372803	580.108643	117.712959	631.520203	509.330872	163.384521	588.961365	284.901428	133.281769	554.370239	103.716698	205.171753	520.577820	86.953003	264.609619	689.137207	64.306740	205.881073
173	1.72000000	521.205505	1428.320435	513.858093	549.500732	1439.247437	105.380150	476.450317	1525.728760	312.483337	601.409241	1411.272827	315.170929	483.499298	1090.429565	597.265320	423.731903	1112.815674	35.540276	617.575256	867.756683	565.513184	458.284073	851.613098	57.828936	570.305359	993.315796	455.304718	595.364502	1005.819885	187.503891	402.680359	1023.175476	290.800598	389.217926	1293.346924	295.170410	626.349548	1231.815063	315.572510	464.473602	567.557129	478.344666	450.127960	482.263733	426.347839	399.707245	260.119659	482.115936	373.650146	79.955864	382.528839	325.800415	50.775440	340.872192	505.875153	49.564243	359.984741	636.409058	578.670898	118.645844	648.178711	507.592346	164.214523	620.410889	280.293640	133.134766	600.536011	96.993668	204.180557	568.157837	77.924858	263.780273	737.822266	67.419846	204.204391
174	1.73000000	535.847595	1426.415161	513.380859	563.018127	1436.827881	104.743309	490.574127	1523.624023	311.793671	615.519653	1409.145752	314.615845	500.475983	1088.775146	598.270874	433.525452	1111.681396	36.456600	638.077423	868.381317	565.596802	463.823608	850.310333	58.376110	583.902954	991.156189	454.939117	609.520874	1003.716797	187.259125	416.732269	1020.940735	290.188934	403.225891	1291.390625	294.904968	640.441345	1229.612183	315.310608	471.811615	566.806580	478.057281	456.078552	481.644562	425.963257	402.551300	260.123718	481.831848	374.035065	80.301392	382.312653	325.930511	51.267555	340.667023	505.915070	49.455292	359.830597	650.091125	576.452148	119.758652	663.916809	505.317719	165.112198	651.304199	276.356201	132.810471	646.590454	91.744713	202.833038	615.735596	70.479645	262.572906	785.822144	72.024246	202.404694
175	1.74000000	550.492676	1424.275269	512.809875	576.602417	1434.185791	104.022697	504.731934	1521.281006	310.984741	629.669861	1406.760132	313.993256	517.413208	1086.900757	599.102173	443.524628	1110.322754	37.273502	658.292847	868.719360	565.521271	469.468414	848.971741	58.884272	597.522400	988.899170	454.519714	623.798584	1001.364136	186.969894	430.860443	1018.438416	289.460388	417.221832	1289.233398	294.523865	654.539429	1227.180298	314.977264	479.442413	565.984558	477.812714	462.370819	480.981598	425.614288	405.509308	260.164459	481.553375	374.463867	80.700737	382.043732	326.091827	51.890903	340.449646	505.988007	49.402798	359.732300	662.602478	573.485291	121.014069	678.914734	502.572174	166.060852	681.626099	273.136475	132.307343	692.148376	88.036972	201.158295	662.881470	64.688042	261.003540	832.771851	78.033127	200.540863
176	1.75000000	565.149963	1421.948486	512.137756	590.265564	1431.355469	103.214500	518.921509	1518.733154	310.055878	643.859863	1404.150513	313.297394	534.299316	1084.846802	599.751099	453.737823	1108.766235	37.970730	678.191589	868.783661	565.292297	475.302246	847.609894	59.345385	611.167297	986.576294	454.073486	638.207825	998.806274	186.658783	445.070953	1015.700195	288.595886	431.205475	1286.908203	294.025391	668.640320	1224.551880	314.573730	487.361389	565.105164	477.607941	469.006592	480.288330	425.295685	408.587891	260.264465	481.271362	374.935211	81.185677	381.717255	326.293549	52.680767	340.208313	506.104095	49.406597	359.685211	674.212646	569.851379	122.360458	693.404907	499.456360	167.028809	711.363403	270.651855	131.627869	736.775391	85.847015	199.204163	709.105652	60.532108	259.108582	878.276489	85.250626	198.685425
177	1.76000000	579.828979	1419.483398	511.358185	604.019348	1428.375000	102.316223	533.141479	1516.019531	309.010284	658.089417	1401.356567	312.522858	551.117737	1082.655151	600.211731	464.177002	1107.040771	38.530270	697.743042	868.588867	564.917175	481.492264	846.220978	59.749254	624.843506	984.214722	453.626709	652.751648	996.090637	186.345520	459.368408	1012.762451	287.582245	445.179413	1284.450317	293.409302	682.743591	1221.763428	314.100494	495.562134	564.186157	477.438782	475.986847	479.579407	425.003540	411.802490	260.447296	480.978577	375.447235	81.792862	381.336914	326.544098	53.675850	339.934448	506.270844	49.460281	359.678192	685.269775	565.683777	123.730728	707.658508	496.101166	167.968582	740.486877	268.884552	130.779526	780.001892	85.053009	197.037003	753.876221	57.899246	256.945648	921.927002	93.370049	196.918671
178	1.77000000	594.537292	1416.927734	510.466766	617.873718	1425.286377	101.326431	547.391113	1513.184448	307.853729	672.358459	1398.423462	311.664673	567.847656	1080.368042	600.480591	474.859192	1105.177124	38.936489	716.916809	868.151733	564.404633	488.277832	844.785278	60.083559	638.559875	981.837463	453.202148	667.427368	993.267761	186.045120	473.757446	1009.666870	286.414185	459.150024	1281.896606	292.677582	696.852722	1218.856201	313.556671	504.039581	563.247864	477.300568	483.314056	478.869507	424.736725	415.176270	260.736145	480.671661	376.001221	82.561874	380.914215	326.851135	54.917809	339.626160	506.493530	49.553505	359.697571	696.183350	561.165710	125.043198	721.965088	492.657898	168.819427	768.935669	267.777069	129.776657	821.343079	85.436607	194.739532	796.644043	56.585175	254.592377	963.318848	101.983650	195.321320
179	1.78000000	609.278870	1414.328003	509.461334	631.835266	1422.134521	100.244492	561.670166	1510.275757	306.592957	686.667297	1395.401245	310.718506	584.464661	1078.027344	600.556152	485.806946	1103.206177	39.176270	735.683350	867.490845	563.764404	495.920517	843.275146	60.333448	652.329285	979.463928	452.816528	682.230347	990.391602	185.766357	488.244568	1006.460876	285.095642	473.128479	1279.283813	291.834900	710.976074	1215.876831	312.939728	512.793762	562.312134	477.188660	490.994843	478.172150	424.498108	418.739105	261.153076	480.352844	376.604553	83.533279	380.467285	327.221893	56.450645	339.290405	506.775635	49.674347	359.730988	707.395508	556.521118	126.205269	736.607178	489.284546	169.513123	796.607666	267.229553	128.642441	860.324158	86.696312	192.406708	836.873657	56.307674	252.142609	1002.072815	110.605408	193.966690
180	1.79000000	624.052551	1411.728760	508.341980	645.906433	1418.967041	99.070152	575.978455	1507.343262	305.234283	701.016724	1392.344238	309.680481	600.941711	1075.673950	600.438477	497.048615	1101.157471	39.239067	754.014557	866.626801	563.006714	504.623016	841.669312	60.481050	666.169434	977.110474	452.478638	697.157532	987.519043	185.510925	502.840332	1003.197083	283.640198	487.130646	1276.647095	290.888428	725.127075	1212.876587	312.245636	521.832703	561.400208	477.099426	499.042328	477.498291	424.294861	422.526825	261.718170	480.031464	377.272644	84.747208	380.019592	327.664276	58.320072	338.944031	507.119598	49.810707	359.770111	719.341614	551.997131	127.120445	751.832214	486.130402	169.982422	823.359619	267.102295	127.410362	896.509338	88.472519	190.139328	874.076477	56.731121	249.700348	1037.857910	118.706093	192.914154
181	1.80000000	638.851990	1409.171997	507.110870	660.084839	1415.832153	97.803162	590.315796	1504.436401	303.782593	715.408508	1389.309692	308.547089	617.250671	1073.347168	600.128845	508.617340	1099.057861	39.117016	771.883942	865.581512	562.142059	514.470566	839.963562	60.505957	680.103821	974.791748	452.188019	712.210999	984.709167	185.273285	517.561096	999.932556	282.069855	501.176971	1274.018921	289.847168	739.324158	1209.910156	311.469238	531.174377	560.531616	477.030823	507.477875	476.855591	424.138702	426.579742	262.449402	479.724640	378.029541	86.242332	379.598602	328.189453	60.572956	338.612366	507.527008	49.950367	359.811523	732.404541	547.840515	127.698303	767.826233	483.321014	170.170059	849.017700	267.224823	126.124016	929.532837	90.382393	188.036133	907.845154	57.499828	247.371643	1070.413086	125.757820	192.205109
